<svg width="300.000000" height="62.294678" viewBox="0 0 300 62.2947" fill="none" xmlns="http://www.w3.org/2000/svg" xmlns:xlink="http://www.w3.org/1999/xlink">
	<desc>
			Created with Pixso.
	</desc>
	<defs/>
	<path id="Explore our collection" d="M57.9544 3.8147e-06L54.9544 3.8147e-06L54.9544 22.08L57.9544 22.08L57.9544 3.8147e-06ZM204.878 3.8147e-06L201.878 3.8147e-06L201.878 22.08L204.878 22.08L204.878 3.8147e-06ZM212.32 3.8147e-06L209.32 3.8147e-06L209.32 22.08L212.32 22.08L212.32 3.8147e-06ZM262.306 3.54L262.306 0.360004L258.796 0.360004L258.796 3.54L262.306 3.54ZM16.848 0.720005L2.98805 0.720005L2.98805 22.08L16.848 22.08L16.848 19.56L6.04805 19.56L6.04805 12.48L16.248 12.48L16.248 9.96L6.04805 9.96L6.04805 3.24001L16.848 3.24001L16.848 0.720005ZM252.097 16.89L252.097 9.3L256.267 9.3L256.267 6.96001L252.097 6.96001L252.097 2.13L249.067 3.18L249.067 6.96001L246.127 6.96001L246.127 9.3L249.067 9.3L249.067 17.13C249.067 18.81 249.497 20.09 250.357 20.97C251.217 21.85 252.427 22.29 253.987 22.29C254.827 22.29 255.577 22.18 256.237 21.96L256.237 19.5C255.697 19.66 255.167 19.74 254.647 19.74C253.847 19.74 253.217 19.53 252.757 19.11Q252.097 18.45 252.097 16.89ZM48.1631 7.59C47.1431 6.93001 45.9831 6.6 44.6831 6.6C43.4631 6.6 42.4031 6.88 41.5031 7.44C40.6031 7.98001 39.9531 8.75001 39.5531 9.75001L39.2531 6.96001L36.4331 6.96001C36.5931 8.22001 36.6731 9.64001 36.6731 11.22L36.6731 28.56L39.6731 28.56L39.6731 19.44C40.1131 20.36 40.7631 21.07 41.6231 21.57Q42.9431 22.29 44.6831 22.29C46.0031 22.29 47.1731 21.97 48.1931 21.33C49.2131 20.69 50.0031 19.79 50.5631 18.63C51.1231 17.45 51.4031 16.08 51.4031 14.52C51.4031 12.96 51.1131 11.58 50.5331 10.38Q49.8814 8.98349 48.8144 8.07454Q48.5061 7.81192 48.1631 7.59ZM65.0058 21.33C66.1258 21.97 67.4258 22.29 68.9058 22.29C70.3658 22.29 71.6558 21.97 72.7758 21.33Q73.4837 20.9255 74.053 20.3772Q74.835 19.6242 75.3558 18.6C75.9758 17.42 76.2858 16.04 76.2858 14.46C76.2858 12.88 75.9758 11.5 75.3558 10.32Q74.801 9.21041 73.9498 8.42002Q73.4202 7.92822 72.7758 7.56001C71.6558 6.92 70.3658 6.6 68.9058 6.6C67.4258 6.6 66.1258 6.92 65.0058 7.56001C63.8858 8.2 63.0158 9.12001 62.3958 10.32C61.7958 11.5 61.4958 12.88 61.4958 14.46C61.4958 16.04 61.7958 17.42 62.3958 18.6C63.0158 19.78 63.8858 20.69 65.0058 21.33ZM88.7974 6.81001C88.2974 6.67 87.8174 6.6 87.3574 6.6C86.3174 6.6 85.3774 6.87 84.5374 7.41C83.6974 7.93001 83.0774 8.69001 82.6774 9.69001L82.4074 6.96001L79.5874 6.96001C79.7474 8.22001 79.8274 9.64001 79.8274 11.22L79.8274 22.08L82.8274 22.08L82.8274 13.65C82.8274 12.39 83.1674 11.35 83.8474 10.53Q84.0538 10.2823 84.2997 10.0833Q85.3044 9.27001 86.9674 9.27001C87.6074 9.27001 88.1974 9.37 88.7374 9.57L88.7974 6.81001ZM92.9137 14.58L103.714 14.58L103.714 14.07C103.714 11.73 103.124 9.90001 101.944 8.58Q101.445 8.01231 100.837 7.60738Q99.3264 6.6 97.1438 6.6C95.7438 6.6 94.4938 6.93001 93.3938 7.59Q92.8513 7.91548 92.3867 8.32849Q91.438 9.17177 90.8138 10.38C90.2138 11.58 89.9137 12.95 89.9137 14.49C89.9137 16.91 90.6038 18.82 91.9837 20.22C93.3638 21.6 95.2637 22.29 97.6837 22.29C98.7438 22.29 99.7937 22.12 100.834 21.78C101.894 21.42 102.764 20.94 103.444 20.34L102.514 18.18C101.074 19.32 99.4837 19.89 97.7438 19.89Q95.7071 19.89 94.5284 18.8844Q92.9985 17.5792 92.9137 14.58ZM117.799 21.33C118.919 21.97 120.219 22.29 121.699 22.29C123.159 22.29 124.449 21.97 125.569 21.33C126.689 20.69 127.549 19.78 128.149 18.6Q129.079 16.83 129.079 14.46Q129.079 12.09 128.149 10.32C127.549 9.12001 126.689 8.2 125.569 7.56001C124.449 6.92 123.159 6.6 121.699 6.6C120.219 6.6 118.919 6.92 117.799 7.56001C116.679 8.2 115.809 9.12001 115.189 10.32C114.589 11.5 114.289 12.88 114.289 14.46C114.289 16.04 114.589 17.42 115.189 18.6C115.809 19.78 116.679 20.69 117.799 21.33ZM159.169 6.81001C158.669 6.67 158.189 6.6 157.729 6.6Q156.75 6.6 155.89 6.91868Q155.378 7.10807 154.909 7.41Q154.552 7.63076 154.248 7.90919Q153.479 8.61453 153.049 9.69001L152.779 6.96001L149.959 6.96001Q150.199 8.85001 150.199 11.22L150.199 22.08L153.199 22.08L153.199 13.65C153.199 12.39 153.539 11.35 154.219 10.53C154.919 9.69001 155.959 9.27001 157.339 9.27001C157.979 9.27001 158.569 9.37 159.109 9.57L159.169 6.81001ZM172.056 21.33C173.196 21.97 174.526 22.29 176.046 22.29C177.126 22.29 178.156 22.12 179.136 21.78C180.136 21.44 180.956 20.97 181.596 20.37L180.666 18.18C179.286 19.3 177.856 19.86 176.376 19.86Q174.747 19.86 173.649 19.0962Q173.271 18.8334 172.956 18.48C172.136 17.54 171.726 16.21 171.726 14.49C171.726 12.77 172.136 11.44 172.956 10.5Q173.323 10.0708 173.774 9.76946Q174.839 9.06001 176.376 9.06001C177.816 9.06001 179.246 9.62 180.666 10.74L181.596 8.55C180.996 7.95 180.206 7.48 179.226 7.14001C178.246 6.78 177.226 6.6 176.166 6.6C174.646 6.6 173.316 6.93001 172.176 7.59Q171.501 7.98047 170.944 8.49693Q170.087 9.28994 169.506 10.38Q168.576 12.18 168.576 14.52C168.576 16.08 168.876 17.45 169.476 18.63C170.076 19.79 170.936 20.69 172.056 21.33ZM187.057 21.33C188.177 21.97 189.477 22.29 190.957 22.29C192.417 22.29 193.707 21.97 194.827 21.33Q195.534 20.9255 196.104 20.3773Q196.886 19.6242 197.407 18.6Q198.337 16.83 198.337 14.46Q198.337 12.09 197.407 10.32Q196.852 9.21038 196.001 8.41997Q195.471 7.92821 194.827 7.56001C193.707 6.92 192.417 6.6 190.957 6.6C189.477 6.6 188.177 6.92 187.057 7.56001C185.937 8.2 185.067 9.12001 184.447 10.32C183.847 11.5 183.547 12.88 183.547 14.46C183.547 16.04 183.847 17.42 184.447 18.6C185.067 19.78 185.937 20.69 187.057 21.33ZM218.861 14.58L229.661 14.58L229.661 14.07Q229.661 10.6264 227.957 8.6554Q227.924 8.61743 227.891 8.58C226.731 7.26 225.131 6.6 223.091 6.6C221.691 6.6 220.441 6.93001 219.341 7.59Q218.799 7.91548 218.334 8.32849Q217.385 9.17177 216.761 10.38C216.161 11.58 215.861 12.95 215.861 14.49C215.861 16.91 216.551 18.82 217.931 20.22C219.311 21.6 221.211 22.29 223.631 22.29C224.691 22.29 225.741 22.12 226.781 21.78C227.841 21.42 228.711 20.94 229.391 20.34L228.461 18.18C227.021 19.32 225.431 19.89 223.691 19.89C220.571 19.89 218.961 18.12 218.861 14.58ZM235.718 21.33C236.858 21.97 238.188 22.29 239.708 22.29C240.788 22.29 241.818 22.12 242.798 21.78C243.798 21.44 244.618 20.97 245.258 20.37L244.328 18.18C242.948 19.3 241.518 19.86 240.038 19.86Q238.409 19.86 237.311 19.0962Q236.933 18.8334 236.618 18.48C235.798 17.54 235.388 16.21 235.388 14.49C235.388 12.77 235.798 11.44 236.618 10.5Q236.985 10.0708 237.437 9.76946Q238.501 9.06001 240.038 9.06001C241.478 9.06001 242.908 9.62 244.328 10.74L245.258 8.55C244.658 7.95 243.868 7.48 242.888 7.14001C241.908 6.78 240.888 6.6 239.828 6.6C238.308 6.6 236.978 6.93001 235.838 7.59Q235.164 7.98047 234.606 8.49693Q233.749 9.28994 233.168 10.38Q232.238 12.18 232.238 14.52C232.238 16.08 232.538 17.45 233.138 18.63C233.738 19.79 234.598 20.69 235.718 21.33ZM269.117 21.33C270.237 21.97 271.537 22.29 273.017 22.29C274.477 22.29 275.767 21.97 276.887 21.33C278.007 20.69 278.867 19.78 279.467 18.6Q280.397 16.83 280.397 14.46Q280.397 12.09 279.467 10.32C278.867 9.12001 278.007 8.2 276.887 7.56001C275.767 6.92 274.477 6.6 273.017 6.6C271.537 6.6 270.237 6.92 269.117 7.56001C267.997 8.2 267.127 9.12001 266.507 10.32C265.907 11.5 265.607 12.88 265.607 14.46C265.607 16.04 265.907 17.42 266.507 18.6Q267.069 19.6693 267.905 20.443Q268.452 20.95 269.117 21.33ZM295.738 7.80183Q294.397 6.6 291.979 6.6C290.819 6.6 289.779 6.86001 288.859 7.38Q288.344 7.66616 287.92 8.05275Q287.234 8.67941 286.789 9.57L286.519 6.96001L283.699 6.96001C283.859 8.22001 283.939 9.64001 283.939 11.22L283.939 22.08L286.939 22.08L286.939 13.47C286.939 12.13 287.319 11.06 288.079 10.26C288.859 9.46 289.889 9.06001 291.169 9.06001Q292.736 9.06 293.494 9.84315Q293.548 9.89955 293.599 9.96C294.119 10.56 294.379 11.52 294.379 12.84L294.379 22.08L297.409 22.08L297.409 12.66Q297.409 9.29873 295.738 7.80183ZM30.7927 22.08L34.3927 22.08L28.1227 14.31L34.0627 6.96001L30.4027 6.96001L26.3227 12.12L22.2727 6.96001L18.6427 6.96001L24.5827 14.31L18.2827 22.08L21.9127 22.08L26.3227 16.5L30.7927 22.08ZM145.76 22.08L145.76 6.96001L142.73 6.96001L142.73 15.45C142.73 16.77 142.35 17.83 141.59 18.63C140.85 19.43 139.86 19.83 138.62 19.83Q137.23 19.83 136.459 19.139Q136.365 19.0546 136.28 18.96C135.78 18.36 135.53 17.44 135.53 16.2L135.53 6.96001L132.53 6.96001L132.53 16.23C132.53 20.27 134.35 22.29 137.99 22.29C139.05 22.29 140 22.06 140.84 21.6C141.68 21.12 142.34 20.44 142.82 19.56L142.82 22.08L145.76 22.08ZM262.066 6.96001L259.066 6.96001L259.066 22.08L262.066 22.08L262.066 6.96001ZM94.9943 9.42303Q95.9221 8.85001 97.2038 8.85001Q98.488 8.85001 99.369 9.446Q99.6405 9.6297 99.8737 9.87001Q100.864 10.86 101.044 12.78L93.0338 12.78Q93.3337 10.89 94.4137 9.87001Q94.6843 9.61452 94.9943 9.42303ZM220.361 9.87001C221.081 9.19001 222.011 8.85001 223.151 8.85001Q224.435 8.85001 225.316 9.44597Q225.588 9.62968 225.821 9.87001Q226.811 10.86 226.991 12.78L218.981 12.78C219.181 11.52 219.641 10.55 220.361 9.87001ZM47.1731 18.48C46.4131 19.42 45.3531 19.89 43.9931 19.89Q42.5964 19.89 41.623 19.248Q41.1539 18.9386 40.7831 18.48C40.0431 17.54 39.6731 16.2 39.6731 14.46C39.6731 12.72 40.0431 11.38 40.7831 10.44Q41.1157 10.0176 41.537 9.72175Q42.5222 9.03 43.9931 9.03C45.3531 9.03 46.4131 9.52001 47.1731 10.5C47.9331 11.46 48.3131 12.8 48.3131 14.52C48.3131 16.22 47.9331 17.54 47.1731 18.48ZM72.0858 18.51C71.3458 19.43 70.2758 19.89 68.8758 19.89Q67.4368 19.89 66.4473 19.2231Q66.0133 18.9307 65.6658 18.51C64.9258 17.59 64.5558 16.24 64.5558 14.46C64.5558 12.72 64.9358 11.38 65.6958 10.44Q66.0665 9.98143 66.5357 9.672Q67.509 9.03 68.9058 9.03C70.2658 9.03 71.3158 9.5 72.0558 10.44C72.8158 11.38 73.1958 12.72 73.1958 14.46C73.1958 16.24 72.8258 17.59 72.0858 18.51ZM124.879 18.51C124.139 19.43 123.069 19.89 121.669 19.89Q120.23 19.89 119.24 19.2231Q118.806 18.9307 118.459 18.51C117.719 17.59 117.349 16.24 117.349 14.46C117.349 12.72 117.729 11.38 118.489 10.44Q118.86 9.98143 119.329 9.672Q120.302 9.03 121.699 9.03C123.059 9.03 124.109 9.5 124.849 10.44C125.609 11.38 125.989 12.72 125.989 14.46C125.989 16.24 125.619 17.59 124.879 18.51ZM194.137 18.51C193.397 19.43 192.327 19.89 190.927 19.89C189.547 19.89 188.477 19.43 187.717 18.51C186.977 17.59 186.607 16.24 186.607 14.46C186.607 12.72 186.987 11.38 187.747 10.44C188.507 9.5 189.577 9.03 190.957 9.03Q192.313 9.03 193.258 9.6535Q193.735 9.96762 194.107 10.44C194.867 11.38 195.247 12.72 195.247 14.46C195.247 16.24 194.877 17.59 194.137 18.51ZM276.197 18.51C275.457 19.43 274.387 19.89 272.987 19.89Q271.548 19.89 270.559 19.2231Q270.125 18.9307 269.777 18.51Q268.667 17.13 268.667 14.46C268.667 12.72 269.047 11.38 269.807 10.44Q270.178 9.98142 270.647 9.67199Q271.62 9.03 273.017 9.03C274.377 9.03 275.427 9.5 276.167 10.44C276.927 11.38 277.307 12.72 277.307 14.46Q277.307 17.13 276.197 18.51Z" fill="#FFFFFF" fill-opacity="1.000000" fill-rule="evenodd"/>
	<circle id="Ellipse 19" cx="149.500000" cy="39.255005" r="4.000000" stroke="#FFFFFF" stroke-opacity="1.000000" stroke-width="3.000000"/>
	<path id="Vector 4" d="M138 50.755L149.5 59.755L161 50.755" stroke="#FFFFFF" stroke-opacity="1.000000" stroke-width="4.000000"/>
</svg>
